<?xml version="1.0" standalone="no"?>
<!DOCTYPE svg PUBLIC "-//W3C//DTD SVG 20010904//EN"
 "http://www.w3.org/TR/2001/REC-SVG-20010904/DTD/svg10.dtd">
<svg version="1.0" xmlns="http://www.w3.org/2000/svg"
 width="245.000000pt" height="255.000000pt" viewBox="0 0 245.000000 255.000000"
 preserveAspectRatio="xMidYMid meet">

<g transform="translate(0.000000,255.000000) scale(0.100000,-0.100000)"
fill="#000000" stroke="none">
<path d="M1109 2495 c-4 -3 -44 -12 -90 -19 -82 -13 -277 -77 -288 -95 -4 -5
-35 -23 -70 -41 -36 -17 -70 -37 -77 -44 -6 -6 -44 -38 -83 -71 -68 -57 -181
-176 -181 -190 0 -4 -15 -25 -34 -48 -69 -86 -196 -388 -196 -468 0 -13 -4
-39 -9 -56 -18 -63 -22 -264 -7 -373 17 -119 51 -265 70 -295 7 -11 19 -38 26
-60 26 -83 128 -250 198 -327 80 -88 238 -228 257 -228 3 0 27 -14 51 -31 50
-34 251 -117 299 -124 17 -2 52 -9 78 -16 33 -8 104 -10 230 -6 187 5 258 19
392 75 56 24 203 110 261 154 47 35 229 223 229 236 0 4 12 23 27 42 97 128
185 365 208 565 18 149 -1 450 -30 490 -4 6 -13 35 -20 65 -7 30 -28 89 -47
130 -20 41 -39 86 -44 99 -25 63 -163 241 -254 326 -53 50 -102 92 -108 94 -7
2 -24 13 -38 25 -70 57 -286 149 -404 172 -84 16 -335 30 -346 19z m465 -464
c4 -91 9 -174 12 -183 5 -17 -9 -18 -195 -18 l-201 0 0 -422 0 -423 319 3 319
3 6 -23 c3 -13 6 -56 6 -95 l0 -73 -102 -2 c-57 -1 -119 -2 -138 -2 -32 -1
-35 -3 -34 -31 0 -16 4 -163 8 -326 l7 -296 -78 -6 c-48 -4 -80 -2 -84 4 -3 6
-9 153 -13 327 -4 174 -10 319 -13 322 -2 3 -44 4 -93 3 l-87 -3 -10 83 -10
82 -2 -61 -1 -62 -112 -6 c-62 -4 -143 -9 -180 -12 l-68 -6 0 501 c0 394 3
501 13 502 6 0 2 4 -11 9 -12 6 -98 8 -191 7 l-168 -3 -7 95 c-9 138 -8 191 5
191 5 0 7 -4 4 -10 -12 -20 45 -9 65 12 l20 22 0 -24 c0 -13 3 -20 7 -16 4 4
8 17 8 29 0 13 9 26 22 32 22 9 21 10 -15 20 -30 9 6 12 183 14 121 1 220 3
221 4 1 1 133 2 292 3 l289 0 7 -165z"/>
<path d="M875 1990 c-3 -5 0 -7 9 -4 8 3 27 -3 42 -13 20 -13 29 -14 32 -5 6
18 82 16 82 -3 0 -16 25 -11 52 12 9 8 22 12 29 7 8 -4 10 -3 5 4 -9 15 -242
17 -251 2z"/>
<path d="M880 1820 c-16 -5 16 -8 93 -9 64 -1 117 2 117 7 0 10 -180 12 -210
2z"/>
</g>
</svg>
